HIERARCHY
ROOT hip
{
  OFFSET 0 0 0
  CHANNELS 6 Xposition Yposition Zposition Zrotation Yrotation Xrotation
  JOINT abdomen
  {
    OFFSET 0 20.6881 -0.73152
    CHANNELS 3 Zrotation Xrotation Yrotation
    JOINT chest
    {
      OFFSET 0 11.7043 -0.48768
      CHANNELS 3 Zrotation Xrotation Yrotation
      JOINT neck
      {
        OFFSET 0 22.1894 -2.19456
        CHANNELS 3 Zrotation Xrotation Yrotation
        JOINT head
        {
          OFFSET -0.24384 7.07133 1.2192
          CHANNELS 3 Zrotation Xrotation Yrotation
          JOINT leftEye
          {
            OFFSET 4.14528 8.04674 8.04672
            CHANNELS 3 Zrotation Xrotation Yrotation
            End Site
            {
              OFFSET 1 0 0
            }
          }
          JOINT rightEye
          {
            OFFSET -3.6576 8.04674 8.04672
            CHANNELS 3 Zrotation Xrotation Yrotation
            End Site
            {
              OFFSET 1 0 0
            }
          }
        }
      }
      JOINT rCollar
      {
        OFFSET -2.68224 19.2634 -4.8768
        CHANNELS 3 Zrotation Xrotation Yrotation
        JOINT rShldr
        {
          OFFSET -8.77824 -1.95073 1.46304
          CHANNELS 3 Zrotation Xrotation Yrotation
          JOINT rForeArm
          {
            OFFSET -28.1742 -1.7115 0.48768
            CHANNELS 3 Zrotation Xrotation Yrotation
            JOINT rHand
            {
              OFFSET -22.5879 0.773209 7.07136
              CHANNELS 3 Zrotation Xrotation Yrotation
              JOINT rThumb1
              {
                OFFSET -1.2192 -0.487915 3.41376
                CHANNELS 3 Zrotation Xrotation Yrotation
                JOINT rThumb2
                {
                  OFFSET -3.37035 -0.52449 3.41376
                  CHANNELS 3 Zrotation Xrotation Yrotation
                  End Site
                  {
                    OFFSET -1.78271 -1.18214 1.43049
                  }
                }
              }
              JOINT rIndex1
              {
                OFFSET -7.75947 0.938293 5.60832
                CHANNELS 3 Zrotation Xrotation Yrotation
                JOINT rIndex2
                {
                  OFFSET -2.54057 -0.884171 1.56538
                  CHANNELS 3 Zrotation Xrotation Yrotation
                  End Site
                  {
                    OFFSET -1.62519 -0.234802 1.16502
                  }
                }
              }
              JOINT rMid1
              {
                OFFSET -8.24714 1.18213 3.41376
                CHANNELS 3 Zrotation Xrotation Yrotation
                JOINT rMid2
                {
                  OFFSET -3.10165 -0.590103 1.0647
                  CHANNELS 3 Zrotation Xrotation Yrotation
                  End Site
                  {
                    OFFSET -2.48547 -0.328903 0.83742
                  }
                }
              }
              JOINT rRing1
              {
                OFFSET -8.82822 0.546677 1.51678
                CHANNELS 3 Zrotation Xrotation Yrotation
                JOINT rRing2
                {
                  OFFSET -2.60934 -0.819778 -0.0198488
                  CHANNELS 3 Zrotation Xrotation Yrotation
                  End Site
                  {
                    OFFSET -2.33842 -0.294052 0.168128
                  }
                }
              }
              JOINT rPinky1
              {
                OFFSET -8.27202 -0.0477905 -0.4584
                CHANNELS 3 Zrotation Xrotation Yrotation
                JOINT rPinky2
                {
                  OFFSET -1.82734 -0.647385 -0.700984
                  CHANNELS 3 Zrotation Xrotation Yrotation
                  End Site
                  {
                    OFFSET -1.69225 -0.51767 -0.607171
                  }
                }
              }
            }
          }
        }
      }
      JOINT lCollar
      {
        OFFSET 2.68224 19.2634 -4.8768
        CHANNELS 3 Zrotation Xrotation Yrotation
        JOINT lShldr
        {
          OFFSET 8.77824 -1.95073 1.46304
          CHANNELS 3 Zrotation Xrotation Yrotation
          JOINT lForeArm
          {
            OFFSET 28.1742 -1.7115 0.48768
            CHANNELS 3 Zrotation Xrotation Yrotation
            JOINT lHand
            {
              OFFSET 22.5879 0.773209 7.07136
              CHANNELS 3 Zrotation Xrotation Yrotation
              JOINT lThumb1
              {
                OFFSET 1.2192 -0.487915 3.41376
                CHANNELS 3 Zrotation Xrotation Yrotation
                JOINT lThumb2
                {
                  OFFSET 3.37035 -0.52449 3.41376
                  CHANNELS 3 Zrotation Xrotation Yrotation
                  End Site
                  {
                    OFFSET 1.78271 -1.18214 1.43049
                  }
                }
              }
              JOINT lIndex1
              {
                OFFSET 7.75947 0.938293 5.60832
                CHANNELS 3 Zrotation Xrotation Yrotation
                JOINT lIndex2
                {
                  OFFSET 2.54057 -0.884171 1.56538
                  CHANNELS 3 Zrotation Xrotation Yrotation
                  End Site
                  {
                    OFFSET 1.62519 -0.234802 1.16502
                  }
                }
              }
              JOINT lMid1
              {
                OFFSET 8.24714 1.18213 3.41376
                CHANNELS 3 Zrotation Xrotation Yrotation
                JOINT lMid2
                {
                  OFFSET 3.10165 -0.590103 1.0647
                  CHANNELS 3 Zrotation Xrotation Yrotation
                  End Site
                  {
                    OFFSET 2.48547 -0.328903 0.83742
                  }
                }
              }
              JOINT lRing1
              {
                OFFSET 8.82822 0.546677 1.51678
                CHANNELS 3 Zrotation Xrotation Yrotation
                JOINT lRing2
                {
                  OFFSET 2.60934 -0.819778 -0.0198488
                  CHANNELS 3 Zrotation Xrotation Yrotation
                  End Site
                  {
                    OFFSET 2.33842 -0.294052 0.168128
                  }
                }
              }
              JOINT lPinky1
              {
                OFFSET 8.27202 -0.0477905 -0.4584
                CHANNELS 3 Zrotation Xrotation Yrotation
                JOINT lPinky2
                {
                  OFFSET 1.82734 -0.647385 -0.700984
                  CHANNELS 3 Zrotation Xrotation Yrotation
                  End Site
                  {
                    OFFSET 1.69225 -0.51767 -0.607171
                  }
                }
              }
            }
          }
        }
      }
    }
  }
  JOINT rButtock
  {
    OFFSET -8.77824 4.35084 1.2192
    CHANNELS 3 Zrotation Xrotation Yrotation
    JOINT rThigh
    {
      OFFSET 0 -1.70687 -2.19456
      CHANNELS 3 Zrotation Xrotation Yrotation
      JOINT rShin
      {
        OFFSET 0 -36.8199 0.73152
        CHANNELS 3 Zrotation Xrotation Yrotation
        JOINT rFoot
        {
          OFFSET 0.73152 -45.1104 -5.12064
          CHANNELS 3 Zrotation Xrotation Yrotation
          End Site
          {
            OFFSET -1.1221 -3.69964 12.103
          }
        }
      }
    }
  }
  JOINT lButtock
  {
    OFFSET 8.77824 4.35084 1.2192
    CHANNELS 3 Zrotation Xrotation Yrotation
    JOINT lThigh
    {
      OFFSET 0 -1.70687 -2.19456
      CHANNELS 3 Zrotation Xrotation Yrotation
      JOINT lShin
      {
        OFFSET 0 -36.8199 0.73152
        CHANNELS 3 Zrotation Xrotation Yrotation
        JOINT lFoot
        {
          OFFSET -0.73152 -45.1104 -5.12064
          CHANNELS 3 Zrotation Xrotation Yrotation
          End Site
          {
            OFFSET 1.1221 -3.69964 12.103
          }
        }
      }
    }
  }
}
MOTION
Frames:	4
Frame Time:	0.00833333
-144.80788 83.735825 32.215508 -168.60945 49.278893 -162.80508 -4.070546 -0.32698783 0.6154993 -1.7075144 -9.724886 0.25519714 -2.2793367 12.570353 9.756828 8.653304 -19.813677 21.085032 0.008183356 0.013065513 -0.0118701495 0.020556562 -0.06548716 0.035660304 -0.027854238 -0.0009424447 0.015334589 85.835205 36.533604 -18.334288 -28.070185 -40.22896 84.30012 0.049257744 0.6690493 0.06484143 -0.031735543 0.034930967 0.028094875 0.023844749 -0.050788682 -0.0110667115 -0.072164826 -0.018659241 0.033970036 7.7831173 5.417897 0.42639944 -0.014916312 -0.03213301 0.06543664 2.8886116 0.97773045 0.11834294 0.023377905 0.022748947 -0.03221421 10.291782 0.7306709 0.03350728 0.076260485 0.01989984 0.023676788 2.1489978 -0.8079475 -0.2116225 -0.060641356 0.042899847 -0.016301718 -66.09749 -11.693646 6.291476 24.630518 -20.597122 -52.141144 2.5998957 41.896202 -7.1312475 -0.04496877 0.015334602 0.007864237 -0.012952436 0.023467215 -0.012868691 0.0088597145 -0.0049734353 -0.001959343 -7.766793 5.424733 -0.38443145 0.023888566 -0.01649933 -0.08126187 -2.908747 0.9213164 -0.12810352 0.034838296 -0.030584484 -0.021540813 -10.3157625 0.74823177 0.030832069 -0.023035327 -0.0069494112 0.0013573826 -2.2652712 -0.7156673 0.2429572 -0.046817344 0.023509372 -0.014209991 -2.6849527 -18.901802 -1.5010426 -0.29280433 44.21886 0.862197 -1.3066964 -10.552348 -1.0841386 0.06690762 0.027749948 -0.017306004 1.0333877 -29.94365 20.972202 0.3235144 41.136658 -0.91716385 7.3182006 -20.037592 15.87189
-147.73991 83.92776 34.10817 -164.85187 62.843433 -155.2014 1.1763499 -0.8089531 2.3544233 -1.2831175 -10.627788 0.78011835 -2.5853326 11.851165 11.462531 9.7944355 -20.561785 24.854237 0.0048718355 0.0059340657 0.0084353825 0.032355938 -0.06775784 0.02157186 0.0019095602 0.021709822 0.0062241424 78.029945 36.188652 -12.330548 -28.10521 -39.902245 83.76902 0.043038778 0.48384646 0.004380361 -0.04335054 0.030357437 0.020921636 0.012638009 -0.017668094 0.0035025158 -0.0791266 -0.014185769 0.034154247 7.771213 5.419824 0.44299453 -0.0063917814 -0.036935046 0.059555613 2.9067898 0.96658796 0.117049105 0.009982144 0.0053264243 -0.016525647 10.267765 0.74692434 0.08198877 0.08738991 0.018958233 0.013509047 2.1642692 -0.7881059 -0.21798323 -0.058365844 0.051631466 0.0145650795 -67.26255 -9.484564 5.129079 24.904217 -21.217402 -53.104332 2.2056618 39.45313 -6.501003 -0.045128003 0.0037721514 -0.017832452 -0.017971085 0.028032342 -0.016476212 0.005767231 0.003694551 -0.010302479 -7.747828 5.444201 -0.3962329 0.0076195775 -0.018530596 -0.06331029 -2.9103396 0.932838 -0.11944653 0.044425763 -0.027462397 -0.020976411 -10.297423 0.74991685 0.026697014 -0.03960835 -0.0008714303 -0.009739873 -2.2459726 -0.7247151 0.23924375 -0.04283775 0.025437867 -0.025991645 1.2919499 -16.208977 -1.9203666 -0.0556435 32.944912 0.65985745 1.0347604 -15.458898 6.0471635 0.062422425 0.022703597 -0.0058731167 9.503981 -33.841175 22.366243 0.4056059 45.651867 -1.1711957 8.277428 -19.311245 17.511854
-150.80852 83.437546 35.00002 -148.20462 70.832146 -138.72395 5.2664723 -0.08808716 4.2936726 -0.7644983 -11.519009 1.2518704 -3.1088111 11.502096 11.767892 11.124787 -22.589638 26.034594 -0.0002251887 -0.00073368644 0.018221466 0.038448542 -0.07322381 -0.00088666234 0.019103894 0.02887515 0.0118127 75.979454 35.31843 -9.034766 -28.349327 -38.167385 80.76564 0.026786039 -0.27596882 -0.1212894 -0.055511314 0.017723229 0.013784723 -0.0013921965 0.009249179 0.033345655 -0.04920062 -0.021726908 0.031404614 7.751998 5.435423 0.43734285 -0.008522165 -0.058991235 0.05561857 2.9114988 0.9477488 0.13571765 -0.0052682133 -0.009746889 0.0073627178 10.253734 0.7610873 0.097701155 0.07744539 0.0116699645 0.014068825 2.1881225 -0.75647146 -0.2243347 -0.06400155 0.051425334 0.019949934 -71.40237 -4.257821 5.134396 26.351522 -24.75356 -58.816307 1.929819 37.128567 -6.0027127 -0.047244772 0.00035453273 -0.025672559 -0.025610028 0.030131157 -0.015061919 0.005914019 0.003512005 -0.026224144 -7.738427 5.4602704 -0.39851367 -0.0025750746 -0.01775841 -0.054110263 -2.9141836 0.9603071 -0.10271544 0.04333014 -0.03443926 -0.029739331 -10.281675 0.74579006 0.014696272 -0.043032385 -0.007356306 -0.013523193 -2.2219899 -0.72514516 0.22971384 -0.034719612 0.025879959 -0.02872684 4.586022 -15.994743 -6.552872 -0.0021332535 29.100883 0.68001485 2.5436468 -19.684341 8.298734 0.058675736 0.019468384 0.003948514 14.203868 -38.995525 18.377966 0.6040722 52.645954 -1.3738227 4.826687 -18.520058 10.102552
-153.5586 82.78358 34.353016 -147.09862 71.99343 -136.95982 8.934032 1.8367449 6.8065624 -0.14402713 -12.166585 1.9671917 -3.779431 11.5947695 10.424875 9.223028 -23.48525 22.401243 -0.009775785 -0.009138691 0.014051667 0.031069819 -0.074684784 -0.01225545 0.016526852 0.027195556 0.015109578 74.352646 33.736603 -5.019861 -28.470228 -35.43446 76.13842 0.0068248366 -2.2481465 -0.38172022 -0.04558679 -0.008286536 0.00364943 -0.008703948 0.01204751 0.050370395 -0.005267642 -0.019557986 0.022763278 7.7511725 5.4615593 0.42244115 -0.021234764 -0.064568855 0.045192517 2.8934004 0.9263835 0.15257193 0.002659013 -0.009560183 0.0065709758 10.255731 0.74912053 0.07973195 0.061991442 -0.011031344 0.023974085 2.2073455 -0.73977095 -0.24239065 -0.05978547 0.057642967 -0.009492654 -77.10214 2.4337053 8.264305 28.068808 -31.617767 -69.76978 1.7430704 35.249825 -5.6280847 -0.047530532 0.0060226303 -0.008766301 -0.03570667 0.019414637 -0.015380646 -0.0067563276 -0.004586786 -0.036642287 -7.740418 5.4691257 -0.4022215 0.005613109 -0.009097804 -0.03718298 -2.8954227 0.9730471 -0.08988607 0.041993666 -0.04276334 -0.040398184 -10.27705 0.7513857 0.009441688 -0.040703848 -0.007964654 -0.014544835 -2.2104397 -0.7339016 0.21623106 -0.012883824 0.016071897 -0.02061041 7.072505 -15.738873 -10.372798 -0.0033747402 29.842516 0.8011062 2.819809 -22.746513 7.356488 0.044271566 0.024082536 -0.003099241 12.434473 -42.684296 8.516811 0.92707443 59.37647 -1.5871866 0.31626606 -16.095581 0.47638556
